<?xml version="1.0" encoding="utf-8"?>
<!-- Generator: Adobe Illustrator 22.1.0, SVG Export Plug-In . SVG Version: 6.00 Build 0)  -->
<svg version="1.1" id="Layer_1" xmlns="http://www.w3.org/2000/svg" xmlns:xlink="http://www.w3.org/1999/xlink" x="0px" y="0px"
	 width="40px" height="40px" viewBox="0 0 40 40" style="enable-background:new 0 0 40 40;" xml:space="preserve">
<style type="text/css">
	.st0{fill:#FFFFFF;}
	.st1{fill:#557EBF;}
	.st2{fill:#36A852;}
	.st3{fill:#F9BC15;}
	.st4{fill:#EB4435;}
</style>
<g>
	<g transform="translate(2 2)">
		<g>
			<path id="b_1_" class="st0" d="M18-2c-11,0-20,8.9-20,20c0,11,8.9,20,20,20c11,0,20-8.9,20-20C38,6.9,29.1-2,18-2z"/>
		</g>
	</g>
	<g>
		<path class="st1" d="M27.7,20.1c0-0.7-0.1-1.1-0.2-1.6H20v3h4.4c-0.1,0.7-0.6,1.8-1.6,2.6l0,0.1l2.4,1.8l0.2,0
			C26.8,24.6,27.7,22.5,27.7,20.1"/>
		<path class="st2" d="M20,27.9c2.1,0,4-0.7,5.3-1.9L22.8,24c-0.7,0.5-1.6,0.8-2.8,0.8c-2.1,0-3.9-1.4-4.5-3.3l-0.1,0l-2.5,1.9
			l0,0.1C14.3,26.2,17,27.9,20,27.9"/>
		<path class="st3" d="M15.5,21.5c-0.2-0.5-0.3-1-0.3-1.6c0-0.5,0.1-1.1,0.3-1.6l0-0.1L13,16.3l-0.1,0c-0.6,1.1-0.8,2.3-0.8,3.6
			c0,1.3,0.3,2.5,0.8,3.6L15.5,21.5"/>
		<path class="st4" d="M20,15c1.5,0,2.5,0.6,3.1,1.2l2.2-2.2C24,12.8,22.2,12,20,12c-3,0-5.8,1.7-7.1,4.4l2.6,2
			C16.1,16.4,17.9,15,20,15"/>
	</g>
</g>
</svg>
