<svg xmlns="http://www.w3.org/2000/svg" width="24" height="24"><circle cx="12" cy="12" r="12" fill="#fff"/><g transform="translate(5 6)"><linearGradient id="A" gradientUnits="userSpaceOnUse" x1="-883.194" y1="483.701" x2="-884.576" y2="483.799" gradientTransform="matrix(14 0 0 -8.4 12381 4067.7998)"><stop offset="0" stop-color="#a100ff"/><stop offset="1" stop-color="red"/></linearGradient><path d="M7.1 0l2.4 4.1.3.3c.1 0 .3 0 .4-.1h0L14 1l-1.3 7.4H1.3L0 1l3.7 3.3c.1.1.3.1.4.1a.76.76 0 0 0 .4-.2h0L7.1 0z" fill="url(#A)"/><linearGradient id="B" gradientUnits="userSpaceOnUse" x1="14.606" y1="10.753" x2="-1.151" y2="10.746"><stop offset="0" stop-color="#a100ff"/><stop offset="1" stop-color="red"/></linearGradient><path d="M12.2 11.5H1.8c-.3 0-.5-.3-.5-.8s.2-.7.5-.7h10.5c.3 0 .5.3.5.8s-.3.7-.6.7" fill="url(#B)"/></g></svg>
